<?xml version="1.0" standalone="no"?>
<!DOCTYPE svg PUBLIC "-//W3C//DTD SVG 20010904//EN"
 "http://www.w3.org/TR/2001/REC-SVG-20010904/DTD/svg10.dtd">
<svg version="1.0" xmlns="http://www.w3.org/2000/svg"
 width="141.000000pt" height="123.000000pt" viewBox="0 0 141.000000 123.000000"
 preserveAspectRatio="xMidYMid meet">

<g transform="translate(0.000000,123.000000) scale(0.100000,-0.100000)"
fill="#000000" stroke="none">
<path d="M466 1124 c4 -64 14 -68 14 -6 0 29 -4 52 -8 52 -5 0 -7 -21 -6 -46z"/>
<path d="M684 1140 c0 -13 4 -16 10 -10 7 7 7 13 0 20 -6 6 -10 3 -10 -10z"/>
<path d="M821 1128 c-1 -38 -21 -55 -21 -18 0 11 -4 20 -8 20 -5 0 -7 -13 -4
-28 4 -32 42 -41 42 -10 0 10 5 18 10 18 6 0 10 -9 10 -20 0 -14 7 -20 23 -20
18 0 22 6 22 29 0 16 -3 27 -7 24 -5 -2 -8 -13 -8 -24 0 -10 -4 -19 -10 -19
-5 0 -10 7 -10 15 0 7 -6 18 -14 22 -8 4 -16 17 -19 28 -3 12 -5 4 -6 -17z"/>
<path d="M653 1110 c0 -25 2 -35 4 -22 2 12 2 32 0 45 -2 12 -4 2 -4 -23z"/>
<path d="M427 1133 c-4 -3 -6 -25 -6 -47 l2 -41 7 45 c8 48 7 54 -3 43z"/>
<path d="M490 1100 c0 -16 2 -30 4 -30 2 0 6 14 8 30 3 17 1 30 -4 30 -4 0 -8
-13 -8 -30z"/>
<path d="M528 1100 c2 -16 6 -30 8 -30 2 0 4 14 4 30 0 17 -4 30 -8 30 -5 0
-7 -13 -4 -30z"/>
<path d="M558 1100 c3 -23 9 -30 26 -30 20 0 22 4 17 33 -5 31 -6 31 -9 5 -4
-35 -22 -37 -22 -3 0 14 -4 25 -8 25 -5 0 -7 -13 -4 -30z"/>
<path d="M712 1100 c0 -19 2 -27 5 -17 2 9 2 25 0 35 -3 9 -5 1 -5 -18z"/>
<path d="M739 1103 c-5 -30 -3 -33 20 -32 16 1 19 3 9 6 -9 2 -18 16 -20 31
-3 26 -4 26 -9 -5z"/>
<path d="M919 1103 c-5 -29 -3 -33 18 -33 18 0 23 6 23 24 0 13 6 27 13 29 7
3 5 6 -5 6 -13 1 -18 -7 -18 -24 0 -34 -18 -32 -22 3 -3 26 -4 26 -9 -5z"/>
<path d="M1210 822 c92 -124 -59 -248 -345 -282 -151 -18 -374 2 -496 45 -23
9 -44 13 -46 11 -7 -6 105 -46 177 -63 92 -21 90 -21 84 -38 -5 -12 -26 -15
-114 -15 -105 0 -109 1 -112 23 -2 17 -11 9 -41 -45 -20 -36 -37 -69 -37 -72
0 -3 178 -6 395 -6 l395 0 -25 67 c-13 37 -23 68 -22 69 1 1 34 11 72 22 123
37 205 106 205 172 0 31 -33 88 -69 117 -36 31 -46 28 -21 -5z m-570 -327 c0
-8 -7 -15 -15 -15 -8 0 -15 7 -15 15 0 8 7 15 15 15 8 0 15 -7 15 -15z m328
-3 c2 -7 -6 -12 -17 -12 -21 0 -27 11 -14 24 9 9 26 2 31 -12z m-278 -2 c0 -5
-7 -10 -15 -10 -8 0 -15 5 -15 10 0 6 7 10 15 10 8 0 15 -4 15 -10z m60 0 c0
-5 -7 -10 -15 -10 -8 0 -15 5 -15 10 0 6 7 10 15 10 8 0 15 -4 15 -10z m50 0
c0 -5 -7 -10 -16 -10 -8 0 -12 5 -9 10 3 6 10 10 16 10 5 0 9 -4 9 -10z m50 0
c0 -5 -4 -10 -10 -10 -5 0 -10 5 -10 10 0 6 5 10 10 10 6 0 10 -4 10 -10z m55
0 c3 -5 -1 -10 -9 -10 -9 0 -16 5 -16 10 0 6 4 10 9 10 6 0 13 -4 16 -10z
m-500 -40 c4 -6 -7 -10 -25 -10 -18 0 -29 4 -25 10 3 6 15 10 25 10 10 0 22
-4 25 -10z m55 0 c0 -5 -7 -10 -15 -10 -8 0 -15 5 -15 10 0 6 7 10 15 10 8 0
15 -4 15 -10z m55 0 c4 -6 -5 -10 -20 -10 -15 0 -24 4 -20 10 3 6 12 10 20 10
8 0 17 -4 20 -10z m50 0 c3 -5 -3 -10 -15 -10 -12 0 -18 5 -15 10 3 6 10 10
15 10 5 0 12 -4 15 -10z m55 0 c0 -5 -7 -10 -16 -10 -8 0 -12 5 -9 10 3 6 10
10 16 10 5 0 9 -4 9 -10z m55 0 c3 -5 -1 -10 -10 -10 -9 0 -13 5 -10 10 3 6 8
10 10 10 2 0 7 -4 10 -10z m55 0 c0 -5 -7 -10 -16 -10 -8 0 -12 5 -9 10 3 6
10 10 16 10 5 0 9 -4 9 -10z m55 0 c3 -5 -1 -10 -10 -10 -9 0 -13 5 -10 10 3
6 8 10 10 10 2 0 7 -4 10 -10z m80 0 c3 -5 -1 -10 -10 -10 -9 0 -13 5 -10 10
3 6 8 10 10 10 2 0 7 -4 10 -10z m50 0 c3 -5 -1 -10 -10 -10 -9 0 -13 5 -10
10 3 6 8 10 10 10 2 0 7 -4 10 -10z m60 0 c3 -5 -1 -10 -9 -10 -9 0 -16 5 -16
10 0 6 4 10 9 10 6 0 13 -4 16 -10z"/>
<path d="M128 303 c7 -3 16 -2 19 1 4 3 -2 6 -13 5 -11 0 -14 -3 -6 -6z"/>
<path d="M850 299 c-13 -6 -28 -15 -32 -22 -11 -17 -10 -57 2 -57 5 0 7 6 4
14 -6 17 12 56 26 56 6 0 10 -37 10 -85 0 -69 3 -85 15 -85 11 0 15 12 15 50
0 28 4 50 8 50 18 0 32 -26 32 -61 0 -21 5 -41 11 -44 15 -10 16 -6 11 49 -3
37 -9 50 -23 53 -24 7 -24 8 2 49 11 19 17 34 12 34 -5 0 -18 -17 -29 -37
l-19 -38 -3 43 c-3 45 -4 46 -42 31z"/>
<path d="M77 282 c-18 -20 -23 -62 -8 -62 5 0 7 9 4 20 -3 12 2 29 12 40 10
11 16 20 13 20 -3 0 -12 -8 -21 -18z"/>
<path d="M168 288 c17 -17 15 -64 -4 -82 -8 -9 -11 -16 -6 -16 17 0 42 36 42
61 0 26 -16 49 -34 49 -6 0 -5 -5 2 -12z"/>
<path d="M428 223 c-3 -78 -19 -86 -32 -19 -5 31 -13 46 -23 46 -11 0 -14 -6
-9 -22 4 -13 10 -40 13 -62 5 -34 4 -38 -13 -34 -13 2 -18 11 -17 28 2 24 2
24 -10 -3 -16 -41 -32 -27 -35 31 -4 68 -20 67 -24 0 -2 -39 -7 -53 -18 -53
-11 0 -16 14 -18 53 -2 28 -8 52 -13 52 -6 0 -9 -24 -7 -57 l3 -58 85 -2 c53
-1 89 2 99 10 11 9 15 9 18 0 8 -24 22 -13 25 20 4 43 32 44 36 1 l3 -32 99 1
99 0 3 46 c3 39 6 46 26 49 35 5 26 20 -13 19 -34 -1 -34 -1 -37 -51 -4 -72
-28 -74 -28 -2 l0 56 -39 0 c-33 0 -40 -4 -49 -27 -6 -16 -12 -39 -14 -53 -4
-33 -22 -28 -26 7 -2 15 -11 32 -20 39 -14 10 -13 12 4 22 10 6 15 12 10 12
-6 0 -20 -10 -33 -22 l-23 -21 0 46 c0 73 -19 55 -22 -20z m180 -40 c-3 -52
-22 -67 -38 -31 -14 29 2 78 25 78 13 0 15 -10 13 -47z"/>
<path d="M1089 248 c-2 -24 -2 -61 1 -83 l5 -40 59 -2 c33 -1 65 2 72 8 8 7
14 7 19 -1 3 -5 18 -10 32 -10 26 0 26 0 7 -22 -15 -19 -16 -20 -1 -9 15 12
17 11 17 -9 0 -17 -4 -21 -17 -15 -14 5 -15 3 -6 -6 6 -6 19 -9 27 -6 13 5 16
24 16 97 0 96 -17 125 -22 38 -2 -39 -7 -53 -18 -53 -11 0 -16 14 -18 53 -4
63 -22 70 -22 8 0 -47 -17 -70 -47 -64 -28 5 -27 33 2 46 32 15 32 55 -1 60
-27 4 -46 -20 -53 -66 -11 -63 -26 -41 -29 41 -3 83 -18 104 -23 35z m121 -31
c0 -14 -20 -37 -32 -37 -10 0 -11 34 -1 43 11 12 33 8 33 -6z"/>
<path d="M110 200 c0 -64 3 -80 15 -80 12 0 15 16 15 80 0 64 -3 80 -15 80
-12 0 -15 -16 -15 -80z"/>
<path d="M990 221 c-12 -24 -13 -71 -1 -89 13 -21 65 -11 69 13 4 20 4 20 -11
0 -13 -16 -17 -17 -31 -6 -18 15 -21 44 -6 72 12 21 45 27 37 6 -3 -7 1 -21 9
-32 13 -17 14 -17 14 -1 0 31 -20 56 -45 56 -14 0 -29 -8 -35 -19z"/>
</g>
</svg>
